<svg width="86" height="78" viewBox="0 0 86 78" fill="none" xmlns="http://www.w3.org/2000/svg">
<path d="M47.3672 15.1582C48.0242 15.6569 48.5754 16.2241 48.795 16.9864C48.8181 17.3012 48.8145 17.6153 48.8114 17.9308C48.811 18.0667 48.811 18.0667 48.8106 18.2055C48.8097 18.4942 48.8076 18.7829 48.8055 19.0716C48.8046 19.2676 48.8039 19.4637 48.8032 19.6598C48.8013 20.1398 48.7985 20.6197 48.795 21.0996C48.8678 21.0787 48.9407 21.0579 49.0157 21.0363C49.1124 21.0089 49.2091 20.9815 49.3087 20.9532C49.4518 20.9125 49.4518 20.9125 49.5977 20.8709C51.6315 20.3365 53.9236 20.6382 55.7817 21.5335C56.6741 22.0246 57.3741 22.6943 57.6973 23.6133C57.7199 23.848 57.7169 24.0815 57.7137 24.317C57.7134 24.4176 57.7134 24.4176 57.713 24.5203C57.7121 24.7337 57.7099 24.9471 57.7078 25.1605C57.707 25.3056 57.7062 25.4507 57.7055 25.5957C57.7037 25.9505 57.7008 26.3054 57.6973 26.6602C57.7573 26.6809 57.8173 26.7017 57.8791 26.723C58.1178 26.8127 58.3405 26.9148 58.568 27.0259C58.6552 27.0684 58.7424 27.1109 58.8322 27.1547C58.972 27.2233 58.972 27.2233 59.1145 27.2934C59.2606 27.3649 59.2606 27.3649 59.4097 27.4378C60.1089 27.7809 60.8014 28.134 61.4919 28.4913C62.1162 28.8129 62.7479 29.1208 63.382 29.4262C64.2148 29.828 65.0402 30.24 65.8595 30.664C65.9331 30.7019 65.9331 30.7019 66.0081 30.7405C67.631 31.5779 67.6311 31.5779 67.7754 31.8399C67.7835 31.9422 67.7864 32.045 67.7867 32.1476C67.7871 32.2124 67.7875 32.2771 67.7878 32.3439C67.7878 32.4512 67.7878 32.4512 67.7878 32.5607C67.7881 32.6364 67.7884 32.7121 67.7887 32.7901C67.7897 33.0454 67.79 33.3007 67.7903 33.556C67.7908 33.7384 67.7914 33.9208 67.792 34.1032C67.7936 34.6518 67.7945 35.2003 67.7952 35.7488C67.7956 36.0071 67.796 36.2653 67.7965 36.5236C67.7979 37.3819 67.7991 38.2403 67.7997 39.0986C67.7999 39.3214 67.8001 39.5442 67.8002 39.767C67.8003 39.8224 67.8003 39.8778 67.8004 39.9348C67.801 40.832 67.8032 41.7291 67.8059 42.6262C67.8087 43.5471 67.8102 44.4679 67.8105 45.3888C67.8106 45.9059 67.8114 46.423 67.8135 46.9401C67.8155 47.4265 67.8158 47.9129 67.815 48.3993C67.8149 48.578 67.8155 48.7566 67.8166 48.9353C67.8181 49.179 67.8175 49.4226 67.8164 49.6663C67.8178 49.7726 67.8178 49.7726 67.8192 49.8811C67.8144 50.3145 67.7498 50.5488 67.4395 50.8828C67.2986 50.9865 67.2986 50.9865 67.1557 51.0539C67.1004 51.0809 67.045 51.1079 66.988 51.1356C66.9274 51.1638 66.8668 51.1919 66.8044 51.2208C66.6674 51.2871 66.5305 51.3535 66.3936 51.4199C66.2817 51.4736 66.2817 51.4736 66.1674 51.5284C65.7256 51.7426 65.2892 51.9657 64.8517 52.1873C64.6561 52.2859 64.4605 52.3845 64.2648 52.483C64.2153 52.508 64.1658 52.5329 64.1148 52.5586C63.5579 52.8388 63.0002 53.1177 62.4424 53.3965C61.6352 53.8001 60.8285 54.2046 60.0226 54.6105C59.9274 54.6585 59.8322 54.7064 59.7341 54.7558C59.2997 54.9749 58.8658 55.1947 58.4334 55.4171C57.6245 55.833 56.8047 56.2304 55.9855 56.6293C55.1821 57.0207 54.3816 57.4167 53.5821 57.8145C53.5181 57.8462 53.4542 57.878 53.3883 57.9107C52.6127 58.296 51.8462 58.6937 51.0835 59.0999C50.4331 59.4462 49.7787 59.7837 49.1152 60.1091C47.9727 60.6695 46.8453 61.2518 45.7305 61.8565C45.1095 62.1927 44.4877 62.5261 43.8451 62.8275C43.7931 62.8528 43.741 62.8781 43.6874 62.9041C43.3279 63.0676 43.0624 63.1237 42.6641 63.0703C42.3624 62.9511 42.085 62.8004 41.8033 62.6466C41.6308 62.5553 41.4582 62.464 41.2856 62.3729C41.1954 62.3249 41.1052 62.2769 41.0122 62.2274C40.5416 61.9796 40.0647 61.7423 39.5882 61.504C38.9171 61.167 38.2482 60.8271 37.5831 60.4805C36.5396 59.937 35.4868 59.4087 34.4336 58.8809C34.3596 58.8438 34.3596 58.8438 34.2841 58.8059C33.3657 58.3457 32.447 57.8861 31.5277 57.4274C30.4486 56.8889 29.3713 56.3479 28.3 55.7968C27.8264 55.5531 27.3515 55.3115 26.875 55.0723C26.2292 54.748 25.5864 54.4189 24.9441 54.089C24.3519 53.7849 23.7582 53.4832 23.164 53.1823C22.5981 52.8956 22.0333 52.6073 21.4708 52.3152C21.4189 52.2883 21.367 52.2613 21.3135 52.2335C21.0627 52.1033 20.8122 51.9728 20.5617 51.842C20.4699 51.7942 20.3781 51.7465 20.2836 51.6972C20.1937 51.6503 20.1038 51.6034 20.0111 51.555C19.8234 51.4601 19.6335 51.3686 19.4419 51.2803C19.2986 51.2142 19.2986 51.2142 19.1524 51.1468C19.067 51.1087 18.9815 51.0705 18.8935 51.0313C18.5341 50.817 18.2022 50.5736 18.0942 50.1805C18.0763 49.9829 18.0743 49.7899 18.0778 49.5917C18.0771 49.5166 18.0765 49.4415 18.0758 49.3641C18.0742 49.1131 18.0762 48.8622 18.0781 48.6112C18.0777 48.431 18.0771 48.2508 18.0763 48.0706C18.0747 47.5816 18.0763 47.0927 18.0785 46.6037C18.0804 46.1439 18.0798 45.6842 18.0795 45.2244C18.079 44.3134 18.0809 43.4024 18.0842 42.4914C18.0874 41.6078 18.0886 40.7242 18.0876 39.8405C18.0866 38.8778 18.0867 37.915 18.0886 36.9523C18.0888 36.8496 18.089 36.7469 18.0892 36.6442C18.0893 36.5937 18.0894 36.5432 18.0895 36.4911C18.0901 36.1354 18.0901 35.7797 18.0897 35.424C18.0894 34.9451 18.0908 34.4663 18.0935 33.9874C18.0942 33.8116 18.0943 33.6358 18.0938 33.4599C18.0933 33.2201 18.0948 32.9803 18.0969 32.7405C18.0962 32.6708 18.0956 32.601 18.095 32.5292C18.1013 32.1098 18.1675 31.8677 18.4766 31.5352C18.6487 31.4139 18.6487 31.4139 18.8332 31.3227C18.9026 31.2877 18.972 31.2526 19.0435 31.2165C19.1552 31.1622 19.1552 31.1622 19.2692 31.1067C19.4294 31.0263 19.5896 30.9459 19.7498 30.8654C19.8724 30.8045 19.8724 30.8045 19.9976 30.7424C20.3716 30.5555 20.7414 30.362 21.1116 30.1688C22.2173 29.5952 23.3268 29.0275 24.4369 28.4609C25.6306 27.8512 26.8208 27.2366 27.9849 26.581C28.1348 26.5078 28.1348 26.5078 28.3028 26.5078C28.2988 26.3766 28.2988 26.3766 28.2948 26.2426C28.2856 25.9139 28.2798 25.5851 28.2751 25.2563C28.2726 25.1147 28.2692 24.9732 28.2648 24.8317C28.232 23.749 28.3544 23.0248 29.1426 22.166C30.4526 21.0167 32.2826 20.6291 34.04 20.6283C34.1464 20.6274 34.2529 20.6265 34.3626 20.6255C35.1829 20.6243 35.8671 20.7158 36.6426 20.9532C36.7325 20.9806 36.8223 21.008 36.9149 21.0363C36.983 21.0572 37.051 21.0781 37.1211 21.0996C37.1198 21.0505 37.1185 21.0013 37.1172 20.9507C37.1041 20.4341 37.0953 19.9175 37.0888 19.4008C37.0859 19.2086 37.0819 19.0164 37.0768 18.8242C37.0413 17.4587 37.064 16.5412 38.1132 15.501C38.5047 15.1728 38.9149 14.9209 39.3887 14.7012C39.447 14.6733 39.5052 14.6454 39.5652 14.6167C41.9813 13.5498 45.1511 13.8209 47.3672 15.1582Z" fill="#263447"/>
<path d="M19.7364 33.668C20.0699 33.766 20.3666 33.8718 20.672 34.0283C20.7948 34.0909 20.7948 34.0909 20.9202 34.1548C21.0076 34.2 21.095 34.2451 21.1851 34.2916C21.3228 34.3621 21.3228 34.3621 21.4633 34.4341C22.2273 34.8262 22.9873 35.2244 23.747 35.6233C24.4372 35.9854 25.1322 36.3388 25.8303 36.6882C26.9684 37.2595 28.1018 37.8384 29.2301 38.4255C29.8041 38.7238 30.3811 39.017 30.9588 39.3094C31.6383 39.6535 32.3143 40.0021 32.9865 40.3576C33.5266 40.6424 34.0716 40.919 34.6173 41.1947C35.4147 41.5977 36.2049 42.0108 36.9922 42.4297C37.5445 42.7231 38.1005 43.0091 38.6611 43.2892C39.3722 43.6448 40.076 44.0119 40.7804 44.3784C40.9715 44.4777 41.1629 44.5765 41.3545 44.6751C41.4096 44.7035 41.4647 44.7319 41.5215 44.7612C41.6666 44.8359 41.8117 44.9105 41.9568 44.9851C42.1602 45.0938 42.1602 45.0938 42.2442 45.1699C42.2524 45.3751 42.2551 45.5783 42.2543 45.7835C42.2544 45.8811 42.2544 45.8811 42.2545 45.9807C42.2546 46.2004 42.2542 46.4202 42.2537 46.64C42.2537 46.7968 42.2537 46.9537 42.2537 47.1105C42.2538 47.5378 42.2533 47.9651 42.2527 48.3923C42.2522 48.8383 42.2521 49.2843 42.252 49.7303C42.2518 50.5755 42.2511 51.4207 42.2502 52.2659C42.2493 53.2278 42.2488 54.1897 42.2484 55.1517C42.2475 57.1311 42.246 59.1105 42.2442 61.0898C42.0323 60.9943 41.8206 60.8987 41.6088 60.803C41.5496 60.7764 41.4904 60.7497 41.4294 60.7222C40.8576 60.4636 40.2985 60.1866 39.7404 59.9044C39.6353 59.8515 39.5303 59.7987 39.4252 59.7459C39.2102 59.6377 38.9953 59.5294 38.7804 59.4209C38.4796 59.2691 38.1785 59.1176 37.8773 58.9663C37.0486 58.5495 36.2207 58.1313 35.3946 57.7103C34.6261 57.3188 33.8554 56.932 33.0794 56.5529C31.9486 56.0001 30.8313 55.4265 29.7171 54.847C28.5731 54.2521 27.4217 53.6698 26.268 53.0904C23.8995 51.9007 23.8995 51.9007 23.0058 51.4336C22.7138 51.2822 22.4196 51.1344 22.1253 50.9867C22.0502 50.9489 22.0502 50.9489 21.9736 50.9105C21.7204 50.7833 21.4671 50.6564 21.2136 50.5298C21.1196 50.4826 21.0255 50.4354 20.9285 50.3868C20.8446 50.3448 20.7606 50.3028 20.674 50.2595C20.5863 50.2139 20.4986 50.1682 20.4082 50.1211C20.3521 50.0968 20.296 50.0724 20.2382 50.0473C19.7745 49.827 19.7745 49.827 19.6746 49.5998C19.6514 49.4253 19.65 49.2599 19.6556 49.0843C19.655 49.0183 19.6544 48.9524 19.6538 48.8844C19.6527 48.6634 19.6564 48.4426 19.6601 48.2216C19.6603 48.0632 19.6602 47.9048 19.6598 47.7464C19.6596 47.3163 19.6636 46.8863 19.6682 46.4562C19.6724 46.0067 19.6728 45.5573 19.6736 45.1078C19.6757 44.2567 19.6812 43.4056 19.688 42.5545C19.6955 41.5856 19.6992 40.6166 19.7026 39.6477C19.7096 37.6544 19.7214 35.6612 19.7364 33.668Z" fill="#7C3AED"/>
<path d="M66.1797 33.668C66.217 35.7589 66.2451 37.8499 66.2623 39.941C66.2706 40.9121 66.2818 41.8829 66.3 42.8538C66.316 43.7003 66.3262 44.5466 66.3298 45.3931C66.3319 45.8413 66.3367 46.2891 66.3484 46.7372C66.3592 47.1594 66.3625 47.5811 66.3601 48.0034C66.3606 48.158 66.3637 48.3126 66.3699 48.467C66.4059 49.4197 66.4059 49.4197 66.1797 49.8164C65.7853 50.1772 65.2808 50.3829 64.7717 50.5798C64.5287 50.6762 64.3036 50.7942 64.0764 50.9179C63.9325 50.992 63.7885 51.066 63.6444 51.1399C63.5646 51.1808 63.4849 51.2217 63.4028 51.2638C62.7364 51.6042 62.0644 51.9347 61.391 52.2634C60.8136 52.5459 60.2411 52.8356 59.6709 53.1299C58.6015 53.6814 57.5191 54.2104 56.4358 54.739C54.7418 55.5661 53.0685 56.4229 51.403 57.2962C50.722 57.6532 50.0396 58.0082 49.3565 58.3619C49.3069 58.3876 49.2574 58.4133 49.2063 58.4398C48.7168 58.6933 48.2273 58.9466 47.7375 59.1995C45.9553 60.1105 45.9553 60.1105 44.202 61.0657C44.0078 61.166 44.0078 61.166 43.8398 61.166C43.8222 59.0883 43.8088 57.0106 43.8007 54.9328C43.7968 53.9681 43.7914 53.0034 43.7828 52.0387C43.7753 51.1979 43.7704 50.3572 43.7687 49.5164C43.7677 49.0711 43.7654 48.6259 43.7599 48.1807C43.7548 47.7616 43.7532 47.3427 43.7543 46.9236C43.7541 46.7698 43.7526 46.6159 43.7497 46.4621C43.7289 45.2975 43.7289 45.2975 44.0051 44.98C44.1998 44.8598 44.3745 44.784 44.5957 44.7129C44.7196 44.6443 44.7196 44.6443 44.846 44.5743C44.9556 44.5169 44.9556 44.5169 45.0674 44.4585C45.1518 44.4143 45.2362 44.3701 45.3232 44.3246C45.4122 44.2783 45.5013 44.2321 45.593 44.1844C45.6878 44.135 45.7827 44.0856 45.8804 44.0347C46.8373 43.5368 47.8024 43.0522 48.7678 42.568C50.0819 41.9076 51.3901 41.238 52.6932 40.5601C53.0681 40.3651 53.4431 40.1705 53.8182 39.976C53.9293 39.9183 53.9293 39.9183 54.0426 39.8595C54.4705 39.6377 54.8997 39.418 55.3299 39.2C55.8925 38.9147 56.4485 38.6197 57.0044 38.324C57.6956 37.9565 58.3914 37.5988 59.0948 37.2509C60.1417 36.7323 61.1742 36.1906 62.2031 35.6432C63.1394 35.1452 64.083 34.6607 65.0338 34.1858C65.1249 34.1402 65.2161 34.0946 65.31 34.0476C65.3908 34.0074 65.4717 33.9671 65.555 33.9256C66.0561 33.668 66.0561 33.668 66.1797 33.668Z" fill="#7C3AED"/>
<path d="M28.3027 28.1836C28.3027 28.6612 28.3027 29.1388 28.3027 29.6309C28.1093 29.7302 27.9158 29.8296 27.7223 29.9289C27.5512 30.0167 27.3801 30.1046 27.2091 30.1926C26.7357 30.4357 26.2612 30.6765 25.7842 30.9136C25.6893 30.961 25.5944 31.0084 25.4966 31.0573C25.3122 31.1493 25.1275 31.2408 24.9424 31.3317C24.8583 31.3738 24.7741 31.4159 24.6875 31.4593C24.6131 31.4961 24.5388 31.5328 24.4622 31.5707C24.2584 31.6955 24.1428 31.7997 24.0195 31.9922C24.0289 32.3432 24.0289 32.3432 24.2089 32.6431C24.3824 32.7743 24.5592 32.8649 24.759 32.9607C24.84 32.9999 24.921 33.0391 25.0044 33.0795C25.1353 33.1422 25.1353 33.1422 25.2688 33.2062C25.9267 33.5252 26.5806 33.8485 27.2267 34.1869C27.9306 34.555 28.6404 34.9127 29.3525 35.2676C30.526 35.8527 31.6895 36.4522 32.8481 37.0612C33.8683 37.5971 34.8926 38.1251 35.9245 38.6423C36.656 39.0095 37.3825 39.3842 38.1075 39.7619C38.6532 40.046 39.1999 40.3281 39.7505 40.6044C39.801 40.6297 39.8515 40.655 39.9035 40.6811C40.1426 40.8011 40.382 40.9206 40.6217 41.0397C41.179 41.3182 41.7226 41.611 42.2615 41.9174C42.3389 41.9602 42.4163 42.0029 42.4961 42.0469C42.5532 42.0794 42.6103 42.1119 42.6691 42.1454C42.9725 42.2457 43.2011 42.1443 43.4835 42.0264C43.567 41.9858 43.6505 41.9451 43.7365 41.9032C43.8309 41.8573 43.9252 41.8115 44.0225 41.7643C44.1243 41.7141 44.2262 41.6639 44.328 41.6136C44.4339 41.5618 44.5399 41.5099 44.6458 41.458C45.3974 41.0887 46.1382 40.7041 46.8744 40.3102C47.4646 39.9945 48.0597 39.6878 48.6584 39.3856C49.3795 39.0215 50.0965 38.6517 50.8105 38.2764C51.6036 37.8597 52.4006 37.4502 53.2011 37.0454C53.9123 36.6854 54.6197 36.3194 55.3263 35.952C56.0355 35.5834 56.7471 35.2191 57.4611 34.8582C58.0963 34.5368 58.7276 34.2105 59.3534 33.8742C59.8475 33.6089 60.3438 33.3471 60.8414 33.0872C60.9573 33.0262 60.9573 33.0262 61.0754 32.9639C61.1471 32.9266 61.2187 32.8893 61.2925 32.8509C61.3884 32.8007 61.3884 32.8007 61.4862 32.7496C61.6445 32.6777 61.6445 32.6777 61.8125 32.6777C61.8193 32.5683 61.8242 32.4588 61.8282 32.3492C61.8326 32.2578 61.8326 32.2578 61.8371 32.1645C61.8058 31.9453 61.7438 31.9061 61.5605 31.7637C61.4184 31.6837 61.2734 31.6079 61.1268 31.5349C61.0401 31.4913 60.9535 31.4478 60.8641 31.403C60.7718 31.3571 60.6794 31.3111 60.5842 31.2638C60.3938 31.1681 60.2034 31.0723 60.0131 30.9764C59.9194 30.9292 59.8256 30.882 59.7291 30.8333C59.3625 30.6473 58.9989 30.4571 58.6368 30.264C58.5798 30.2338 58.5227 30.2035 58.4639 30.1724C58.3193 30.0949 58.1762 30.0154 58.0332 29.9355C57.932 29.8905 57.932 29.8905 57.8288 29.8445C57.5999 29.6053 57.6628 29.3109 57.6763 29.0072C57.6778 28.9428 57.6793 28.8785 57.6809 28.8122C57.6848 28.6534 57.6908 28.4946 57.6973 28.3359C58.0054 28.4429 58.2964 28.5667 58.5893 28.7043C58.6807 28.7472 58.7722 28.7902 58.8665 28.8344C58.9639 28.8804 59.0613 28.9264 59.1617 28.9739C59.212 28.9976 59.2622 29.0212 59.3139 29.0456C60.2203 29.4731 61.1194 29.9121 62.014 30.3596C62.2335 30.4693 62.4532 30.5786 62.673 30.6877C63.0865 30.8933 63.4995 31.0996 63.9121 31.3066C63.9774 31.3394 64.0427 31.3722 64.11 31.4059C64.2962 31.4995 64.4821 31.5934 64.668 31.6875C64.7228 31.7151 64.7776 31.7426 64.8341 31.771C65.1016 31.9071 65.3488 32.0514 65.5918 32.2207C65.0172 32.5802 64.4235 32.9016 63.8176 33.2157C63.7219 33.2655 63.6262 33.3153 63.5276 33.3667C62.4198 33.9431 61.3087 34.5143 60.1925 35.0771C59.3853 35.4846 58.581 35.8937 57.7917 36.3292C57.0417 36.7431 56.2762 37.13 55.5076 37.5146C54.9534 37.7921 54.4018 38.0728 53.855 38.3621C53.2923 38.6597 52.727 38.9527 52.1595 39.2428C51.4374 39.6121 50.7166 39.9836 49.9969 40.3568C49.9478 40.3823 49.8987 40.4078 49.848 40.434C49.3485 40.693 48.8491 40.9522 48.35 41.212C48.1047 41.3396 47.8593 41.4671 47.6139 41.5946C47.5657 41.6196 47.5176 41.6446 47.468 41.6704C46.633 42.1038 45.7934 42.5294 44.951 42.9507C44.8206 43.016 44.8206 43.016 44.6876 43.0826C44.6031 43.1247 44.5187 43.1667 44.4317 43.21C44.2535 43.3018 44.0778 43.3974 43.9041 43.4959C43.8162 43.5455 43.7283 43.5951 43.6378 43.6462C43.5204 43.7146 43.5204 43.7146 43.4007 43.7844C43.1119 43.8968 42.9636 43.8748 42.6641 43.7988C42.4482 43.6964 42.2456 43.5915 42.0394 43.4751C41.9127 43.4055 41.7858 43.3361 41.6589 43.2668C41.591 43.2296 41.5231 43.1925 41.4532 43.1542C41.0644 42.9443 40.67 42.7433 40.2758 42.542C40.1931 42.4997 40.1104 42.4574 40.0253 42.4138C39.5958 42.1944 39.1654 41.9766 38.7338 41.7607C38.0854 41.4363 37.4446 41.1017 36.8062 40.7615C36.1577 40.416 35.5051 40.0804 34.843 39.757C34.2344 39.4595 33.6358 39.1507 33.0426 38.8286C32.2774 38.4133 31.5002 38.0202 30.7181 37.6321C29.9225 37.237 29.1367 36.8293 28.3553 36.4116C27.7191 36.0728 27.074 35.7512 26.4248 35.4335C25.9573 35.2039 25.5007 34.9646 25.0477 34.7122C24.4841 34.4019 23.9046 34.1174 23.3267 33.8298C21.7997 33.0687 21.7997 33.0687 21.1431 32.7301C21.0771 32.6968 21.0112 32.6635 20.9432 32.6291C20.5019 32.3996 20.5019 32.3996 20.4082 32.1445C20.4567 32.1208 20.5052 32.0971 20.5552 32.0727C21.427 31.6459 22.2953 31.2159 23.147 30.7569C24.5263 30.0137 25.9293 29.3069 27.3306 28.5987C27.5188 28.5026 27.7052 28.4043 27.8913 28.305C28.1348 28.1836 28.1348 28.1836 28.3027 28.1836Z" fill="#7C3AED"/>
<path d="M46.5654 32.4894C47.024 32.8854 47.2082 33.1855 47.2255 33.7632C47.2184 34.2454 47.0947 34.5756 46.7396 34.9361C45.6166 35.8848 43.9018 36.0854 42.4311 36.0397C41.129 35.9674 39.8183 35.5835 38.9373 34.6867C38.5986 34.3212 38.5099 34.035 38.5229 33.5605C38.5865 33.077 38.8817 32.6847 39.2696 32.3576C41.3274 30.9706 44.569 30.9871 46.5654 32.4894Z" fill="#F3F3F3"/>
<path d="M46.5004 16.4457C46.8329 16.6981 47.1492 16.9597 47.2284 17.364C47.3401 18.5226 47.3401 18.5226 46.9892 18.9383C45.7593 19.939 44.0322 20.1779 42.4488 20.1213C41.6291 20.0735 40.7776 19.9559 40.0605 19.5762C39.9639 19.5255 39.9639 19.5255 39.8653 19.4738C39.4121 19.2184 38.8938 18.9114 38.7524 18.417C38.733 18.2314 38.7307 18.0535 38.7377 17.8671C38.7393 17.8028 38.7408 17.7384 38.7424 17.6721C38.7643 17.2586 38.814 16.9482 39.1459 16.643C39.2245 16.5867 39.2245 16.5867 39.3046 16.5293C39.3884 16.4683 39.3884 16.4683 39.4739 16.4061C41.536 15.0539 44.4493 15.1251 46.5004 16.4457Z" fill="#FAF9F8"/>
<path d="M37.7929 23.0801C38.1882 23.4155 38.3126 23.7204 38.344 24.2084C38.3239 24.8499 37.9757 25.2242 37.4779 25.6509C36.2283 26.5716 34.5577 26.7099 33.0058 26.584C31.8918 26.443 30.7753 26.0275 30.0663 25.2129C29.8625 24.9356 29.8704 24.6745 29.8668 24.3465C29.8645 24.2485 29.8621 24.1505 29.8596 24.0495C29.9045 23.7207 30.0099 23.5664 30.2343 23.3086C30.2758 23.2607 30.3174 23.2128 30.3602 23.1634C32.1861 21.4039 35.8581 21.6799 37.7929 23.0801Z" fill="#F8F8F7"/>
<path d="M51.6453 22.0661C51.7299 22.0658 51.8145 22.0656 51.9016 22.0653C52.7294 22.0706 53.5019 22.1688 54.2593 22.4802C54.3448 22.5151 54.3448 22.5151 54.4321 22.5506C55.0947 22.8321 55.7634 23.1934 56.0554 23.8311C56.1688 24.2307 56.1531 24.6004 56.0229 24.9939C55.3366 25.8616 54.2597 26.3159 53.1255 26.5031C51.4982 26.7362 49.8558 26.5897 48.4591 25.7461C48.053 25.4262 47.8061 25.1503 47.7672 24.652C47.7652 24.5528 47.7631 24.4535 47.761 24.3512C47.7578 24.2525 47.7547 24.1539 47.7515 24.0522C47.8158 23.537 48.1733 23.2278 48.5936 22.9075C49.5219 22.2987 50.5151 22.0497 51.6453 22.0661Z" fill="#F9F9F7"/>
<path d="M60.9016 41.4911C61.0717 41.5316 61.1785 41.5715 61.2668 41.6279C61.354 41.6835 61.4305 41.7602 61.5344 41.8837C61.5751 41.9968 61.5963 42.0722 61.5989 42.1425C61.6013 42.2101 61.5858 42.2815 61.5422 42.3857C61.3671 42.5837 61.1608 42.7077 60.9153 42.832L60.6497 42.9628L60.6487 42.9638L60.4124 43.0829L59.6575 43.4579L59.4084 43.581L58.4075 44.0722C57.9894 44.2766 57.5735 44.485 57.1594 44.6953L55.9202 45.331L54.8938 45.8554L53.8372 46.4052L53.2717 46.7021H53.2708C53.1821 46.7499 53.0935 46.7983 53.0022 46.8476C52.5218 47.0976 52.2093 47.2492 51.7004 47.1816C51.5703 47.0788 51.4887 47.0007 51.4319 46.915C51.3752 46.8293 51.3373 46.7284 51.3059 46.5751C51.335 46.4429 51.3761 46.3554 51.4338 46.2822C51.4971 46.2019 51.5855 46.1314 51.72 46.0361C51.8676 45.9514 52.0178 45.8711 52.1702 45.7929L52.6399 45.5585L52.6409 45.5576L52.9211 45.4179L53.51 45.1249L54.6409 44.5556L56.6897 43.5263L56.8459 43.4482L57.0022 43.371L59.6125 42.0536L59.8567 41.9286L60.0803 41.8134L60.2747 41.7138L60.2766 41.7128C60.5081 41.5899 60.6094 41.5361 60.6848 41.5107C60.7465 41.4899 60.7874 41.4894 60.9016 41.4911Z" fill="white" stroke="black" stroke-width="0.25"/>
<path d="M38.6329 35.1152C38.67 35.1451 38.7071 35.1749 38.7454 35.2057C40.1393 36.3101 41.7965 36.6506 43.6137 36.5794C44.846 36.4872 46.1826 36.0653 47.0169 35.2131C47.0493 35.1808 47.0818 35.1485 47.1153 35.1152C47.143 35.1152 47.1707 35.1152 47.1993 35.1152C47.2091 35.3993 47.215 35.6833 47.2203 35.9674C47.2231 36.0478 47.2259 36.1281 47.2288 36.2109C47.237 36.8029 47.237 36.8029 47.0658 37.0945C46.8224 37.2791 46.5716 37.4254 46.2912 37.5575C46.2363 37.5837 46.1814 37.6098 46.1248 37.6368C44.525 38.3678 42.4417 38.4842 40.7386 37.9897C40.2023 37.8169 39.7044 37.5956 39.2208 37.3242C39.15 37.285 39.0792 37.2459 39.0062 37.2055C38.7576 37.0167 38.6482 36.8135 38.603 36.5225C38.6011 36.4226 38.6011 36.4226 38.5991 36.3206C38.5976 36.2482 38.596 36.1758 38.5945 36.1012C38.5969 35.7719 38.6105 35.4439 38.6329 35.1152Z" fill="#F3F3F2"/>
<path d="M47.1153 19.4238C47.143 19.4238 47.1707 19.4238 47.1992 19.4238C47.214 19.692 47.2229 19.96 47.2307 20.2284C47.235 20.3039 47.2392 20.3793 47.2435 20.4571C47.2521 20.8445 47.2447 21.1043 46.9627 21.4085C45.865 22.4074 44.2125 22.5727 42.7428 22.5762C41.4239 22.562 40.0762 22.2661 39.0698 21.44C38.8175 21.1835 38.7903 20.9992 38.7926 20.6679C38.7929 20.5999 38.7931 20.5319 38.7934 20.4618C38.7941 20.3911 38.7948 20.3203 38.7956 20.2474C38.7959 20.1758 38.7963 20.1042 38.7967 20.0304C38.7977 19.8536 38.7991 19.6768 38.8008 19.5C38.8446 19.5302 38.8884 19.5605 38.9336 19.5916C40.242 20.4891 41.3628 20.8084 42.9948 20.8092C43.137 20.8106 43.137 20.8106 43.282 20.812C44.5771 20.8141 45.7672 20.4842 46.7793 19.7285C46.8714 19.645 46.8714 19.645 46.9653 19.5598C47.0148 19.5149 47.0643 19.4701 47.1153 19.4238Z" fill="#F5F5F3"/>
<path d="M29.8985 25.7461C30.0035 25.8174 30.1085 25.8887 30.2135 25.96C30.2751 26.0018 30.3367 26.0437 30.4001 26.0867C30.5191 26.1681 30.637 26.2507 30.7541 26.3343C31.9107 27.1098 33.5726 27.2664 34.963 27.0931C36.1085 26.8984 37.2994 26.5124 38.129 25.7461C38.1413 25.9873 38.1487 26.2284 38.1552 26.4697C38.1587 26.5373 38.1623 26.6048 38.1659 26.6744C38.1759 27.1679 38.0823 27.5091 37.7091 27.8789C37.4463 28.0443 37.4463 28.0443 37.1579 28.1646C37.0812 28.1969 37.0812 28.1969 37.0029 28.2299C35.4041 28.8876 33.4422 29.0763 31.7514 28.5796C31.0202 28.3199 30.3455 28.03 29.8985 27.4219C29.8794 27.2421 29.8794 27.2421 29.8821 27.033C29.8827 26.9581 29.8832 26.8832 29.8838 26.8061C29.8852 26.7281 29.8866 26.6501 29.888 26.5697C29.8888 26.4908 29.8895 26.4119 29.8903 26.3306C29.8923 26.1358 29.8951 25.9409 29.8985 25.7461Z" fill="#F4F4F3"/>
<path d="M29.8985 28.0312C29.9365 28.0615 29.9745 28.0917 30.0136 28.1229C31.391 29.2082 32.9946 29.4176 34.7696 29.3262C35.147 29.2799 35.498 29.1996 35.8614 29.0977C35.965 29.0709 36.0686 29.044 36.1754 29.0164C36.8709 28.8285 37.456 28.569 38.045 28.1836C38.1529 29.5833 38.1529 29.5833 37.9308 29.9948C37.7527 30.142 37.5929 30.2268 37.3731 30.3164C37.2941 30.3514 37.2151 30.3863 37.1336 30.4223C35.5291 31.0766 33.5527 31.2897 31.8557 30.7993C31.1448 30.5379 30.3365 30.2267 29.8985 29.6309C29.8794 29.4581 29.8794 29.4581 29.8821 29.2586C29.8827 29.1872 29.8832 29.1158 29.8838 29.0422C29.8852 28.9678 29.8866 28.8934 29.888 28.8168C29.8888 28.7415 29.8895 28.6662 29.8903 28.5887C29.8923 28.4029 29.8951 28.2171 29.8985 28.0312Z" fill="#F3F3F2"/>
<path d="M55.9335 25.8223C55.9612 25.8223 55.9889 25.8223 56.0175 25.8223C56.0323 26.0777 56.0411 26.3331 56.049 26.5887C56.0532 26.6606 56.0574 26.7324 56.0618 26.8064C56.0703 27.1772 56.0579 27.4305 55.7941 27.7251C54.7321 28.6796 53.0131 28.8232 51.6027 28.8212C50.3401 28.7981 49.0728 28.5325 48.123 27.7266C47.9464 27.4864 47.9345 27.4325 47.9386 27.1591C47.9391 27.0946 47.9397 27.03 47.9402 26.9635C47.9416 26.8964 47.943 26.8293 47.9445 26.7601C47.9452 26.6921 47.946 26.6241 47.9468 26.5541C47.9488 26.3863 47.9515 26.2185 47.955 26.0508C48.0524 26.1032 48.0524 26.1032 48.1518 26.1567C49.3124 26.7768 50.2389 27.16 51.6136 27.141C51.747 27.1414 51.747 27.1414 51.8831 27.1417C52.6864 27.1368 53.4145 27.0192 54.1646 26.7601C54.2217 26.7406 54.2787 26.7211 54.3375 26.701C54.9185 26.4939 55.4886 26.2257 55.9335 25.8223Z" fill="#F4F3F2"/>
<path d="M29.8985 30.2402C29.9331 30.2695 29.9677 30.2988 30.0033 30.329C30.3648 30.624 30.7221 30.8333 31.1635 31.0162C31.2261 31.0422 31.2887 31.0682 31.3532 31.0949C32.9952 31.7521 34.7346 31.6762 36.3968 31.1388C37.035 30.9102 37.5842 30.6151 38.129 30.2402C38.2322 31.2384 38.2322 31.2384 37.9912 31.5756C37.814 31.7256 37.814 31.7256 37.6244 31.8631C37.4297 31.9946 37.4297 31.9946 37.3206 32.2683C37.0688 32.7071 36.434 32.8374 35.9454 32.9824C34.3145 33.4394 32.4241 33.3196 30.9063 32.6016C30.1491 32.1808 30.1491 32.1808 29.8985 31.8398C29.8794 31.6671 29.8794 31.6671 29.8821 31.4676C29.8827 31.3962 29.8832 31.3247 29.8838 31.2511C29.8852 31.1768 29.8866 31.1024 29.888 31.0258C29.8888 30.9505 29.8895 30.8752 29.8903 30.7977C29.8923 30.6119 29.8951 30.4261 29.8985 30.2402Z" fill="#F1F1F0"/>
<path d="M56.0176 28.1836C56.0393 28.5284 56.0537 28.871 56.0461 29.2164C56.0449 29.2736 56.0437 29.3308 56.0425 29.3897C56.0048 29.6389 55.9154 29.8134 55.7049 29.9778C55.6418 30.0141 55.5787 30.0505 55.5136 30.0879C55.4237 30.1399 55.3337 30.192 55.241 30.2456C55.1364 30.3017 55.0313 30.357 54.9258 30.4116C54.8776 30.4368 54.8294 30.4619 54.7797 30.4878C53.8741 30.9168 52.8513 30.963 51.8498 30.9543C51.6962 30.9557 51.6962 30.9557 51.5395 30.957C50.6347 30.9544 49.8244 30.817 49.0154 30.4449C48.9212 30.4028 48.827 30.3607 48.7299 30.3173C48.146 29.9871 48.146 29.9871 47.9551 29.707C47.897 29.453 47.9069 29.2128 47.9236 28.9548C47.9258 28.8879 47.9281 28.8209 47.9304 28.7519C47.9363 28.5878 47.9454 28.4237 47.9551 28.2598C48.0071 28.2938 48.0592 28.3279 48.1128 28.363C49.5666 29.2631 51.3376 29.4818 53.0617 29.2908C54.0373 29.1212 54.9991 28.8009 55.8043 28.2675C55.9336 28.1836 55.9336 28.1836 56.0176 28.1836Z" fill="#F3F4F3"/>
<path d="M56.0175 30.3164C56.0266 30.5498 56.0333 30.7828 56.0385 31.0162C56.0414 31.0821 56.0442 31.1479 56.0471 31.2157C56.0524 31.5293 56.0512 31.7125 55.8709 31.9865C54.7565 32.9166 53.0651 33.1855 51.6011 33.1538C50.3479 33.1038 49.067 32.8075 48.1335 32.016C47.7936 31.5709 47.9263 30.9068 47.955 30.3926C48.0081 30.4267 48.0611 30.4607 48.1158 30.4958C49.6031 31.4074 51.3887 31.6794 53.1499 31.4039C54.1076 31.2243 54.9977 30.9206 55.7954 30.403C55.9336 30.3164 55.9336 30.3164 56.0175 30.3164Z" fill="#F2F2F1"/>
<path d="M55.9336 32.4492C55.9613 32.4492 55.989 32.4492 56.0176 32.4492C56.0176 32.952 56.0176 33.4547 56.0176 33.9727C55.7175 34.1344 55.4165 34.2943 55.1147 34.4535C55.0311 34.4988 54.9474 34.5441 54.8612 34.5908C53.9219 35.0827 53.0691 35.2325 51.9916 35.22C51.8958 35.2193 51.8 35.2185 51.7012 35.2178C50.7806 35.2028 49.5772 35.1392 48.8789 34.5059C48.8611 34.2929 48.8473 34.0812 48.8369 33.8679C48.8203 33.4187 48.8203 33.4187 48.7109 32.9824C48.9156 33.0557 49.119 33.13 49.3202 33.2109C50.854 33.8135 52.8664 33.804 54.4247 33.2726C54.9707 33.0688 55.5241 32.8433 55.9336 32.4492Z" fill="#F2F3F2"/>
<path d="M38.8008 21.8613C39.0165 21.9542 39.2225 22.058 39.428 22.1678C41.0462 23.0277 42.8174 23.3759 44.6797 22.9658C45.5244 22.7237 46.3423 22.3666 47.0312 21.8613C47.0867 21.8613 47.1421 21.8613 47.1992 21.8613C47.1992 21.9619 47.1992 22.0624 47.1992 22.166C47.1386 22.2069 47.078 22.2477 47.0155 22.2898C46.5792 22.624 46.3714 23.0925 46.2911 23.599C46.249 23.8014 46.2201 23.8927 46.0559 24.0373C45.8818 24.14 45.7089 24.2215 45.5195 24.2988C45.4673 24.3213 45.4152 24.3438 45.3614 24.367C44.0749 24.8625 42.301 24.8458 40.9844 24.4512C40.1092 24.1145 40.1092 24.1145 39.8086 23.8418C39.7515 23.6844 39.6998 23.5254 39.6511 23.3657C39.4896 22.873 39.3044 22.5804 38.9478 22.1851C38.8008 22.0137 38.8008 22.0137 38.8008 21.8613Z" fill="#F6F6F5"/>
<path d="M29.8986 32.373C29.9713 32.4375 30.0441 32.5019 30.119 32.5682C31.3089 33.4813 32.901 33.7668 34.4207 33.6824C35.1812 33.6219 35.903 33.4497 36.6111 33.1934C36.7853 33.1348 36.7853 33.1348 36.9532 33.1348C36.963 33.3712 36.969 33.6076 36.9742 33.8441C36.9771 33.9112 36.9799 33.9783 36.9828 34.0475C36.991 34.5399 36.991 34.5399 36.8207 34.7299C36.5595 34.8334 36.2989 34.9261 36.0294 35.0105C35.8761 35.0591 35.8761 35.0591 35.7197 35.1087C34.7051 35.4104 33.0498 35.5216 32.0451 35.1164C31.7492 34.9688 31.4793 34.7952 31.2152 34.6049C31.0015 34.4546 30.7703 34.3323 30.5389 34.2059C30.2986 34.0686 30.0806 33.9432 29.8986 33.7441C29.87 33.5923 29.87 33.5923 29.874 33.4219C29.8748 33.3608 29.8756 33.2997 29.8764 33.2367C29.8785 33.1732 29.8806 33.1097 29.8828 33.0443C29.8839 32.9799 29.8851 32.9156 29.8863 32.8493C29.8892 32.6905 29.8937 32.5318 29.8986 32.373Z" fill="#F2F2F1"/>
<path d="M39.8086 24.4512C40.428 24.7083 40.428 24.7083 40.6174 24.7884C41.371 25.0939 42.1125 25.1649 42.9318 25.1605C43.0582 25.16 43.0582 25.16 43.1872 25.1594C44.1457 25.1458 45.0208 25.0387 45.8676 24.6026C46.0234 24.5273 46.0234 24.5273 46.1914 24.5273C46.205 24.7608 46.215 24.9936 46.2229 25.2272C46.2271 25.293 46.2313 25.3588 46.2357 25.4267C46.2446 25.7793 46.2402 25.9231 45.9788 26.1987C45.6836 26.3793 45.3665 26.4773 45.0261 26.5649C44.9699 26.5807 44.9137 26.5966 44.8559 26.6128C43.4041 27.0061 41.5883 26.952 40.2285 26.3412C40.0899 26.2705 39.9514 26.1998 39.8086 26.127C39.8086 25.5739 39.8086 25.0209 39.8086 24.4512Z" fill="#F3F4F3"/>
<path d="M39.8087 26.584C39.8909 26.6207 39.9731 26.6574 40.0577 26.6953C40.1689 26.7439 40.2801 26.7925 40.3914 26.8411C40.4451 26.8652 40.4989 26.8894 40.5542 26.9143C41.8663 27.4826 43.6364 27.4544 45.0026 27.058C45.4079 26.9156 45.8039 26.7623 46.1915 26.584C46.2062 26.8315 46.2151 27.0789 46.223 27.3267C46.2272 27.3968 46.2315 27.4669 46.2358 27.5391C46.2406 27.7377 46.2374 27.9131 46.1915 28.1074C45.8869 28.3713 45.5469 28.472 45.147 28.5787C45.057 28.6034 44.967 28.628 44.8743 28.6534C43.449 28.9777 41.3698 29.0069 40.0607 28.3359C39.9775 28.2857 39.8944 28.2354 39.8087 28.1836C39.7801 28.0195 39.7801 28.0195 39.7841 27.8188C39.7853 27.7113 39.7853 27.7113 39.7866 27.6016C39.7887 27.5266 39.7908 27.4516 39.793 27.3743C39.7941 27.2987 39.7952 27.2231 39.7964 27.1452C39.7994 26.9581 39.8035 26.771 39.8087 26.584Z" fill="#F5F5F4"/>
<path d="M46.1914 28.6406C46.1914 29.2942 46.1914 29.9477 46.1914 30.6211C45.3516 30.3926 45.3516 30.3926 45.0524 30.3036C43.6076 29.915 42.0134 29.9716 40.5645 30.3164C40.315 30.3667 40.0656 30.417 39.8086 30.4688C39.8086 29.8906 39.8086 29.3125 39.8086 28.7168C40.1827 28.8676 40.1827 28.8676 40.5645 29.0215C42.2418 29.5415 44.3302 29.3689 45.923 28.7159C46.1074 28.6406 46.1074 28.6406 46.1914 28.6406Z" fill="#F4F4F3"/>
<path d="M41.8241 31.8398C42.0458 31.8398 42.2676 31.8398 42.496 31.8398C42.5141 31.889 42.5322 31.9382 42.5508 31.9889C42.6508 32.1656 42.6508 32.1656 42.8795 32.1883C43.0041 32.1925 43.0041 32.1925 43.1311 32.1969C43.5821 32.2155 43.5821 32.2155 43.6718 32.2969C43.6752 32.4238 43.6754 32.5508 43.6718 32.6777C43.6227 32.6792 43.5735 32.6808 43.5229 32.6823C43.2996 32.6896 43.0762 32.6979 42.8529 32.7063C42.7756 32.7087 42.6983 32.711 42.6187 32.7134C42.544 32.7164 42.4693 32.7193 42.3923 32.7224C42.2894 32.726 42.2894 32.726 42.1844 32.7296C41.978 32.7557 41.8361 32.8129 41.6562 32.9062C41.6839 33.0068 41.7116 33.1073 41.7401 33.2109C41.8053 33.212 41.8705 33.2132 41.9376 33.2143C42.2358 33.22 42.5338 33.2274 42.8319 33.2347C42.9345 33.2365 43.037 33.2382 43.1426 33.2399C44.3596 33.2728 44.3596 33.2728 44.8197 33.6219C44.9315 33.7441 44.9315 33.7441 44.984 33.9965C44.9173 34.3534 44.7807 34.4137 44.4745 34.621C44.3131 34.7371 44.3131 34.7371 44.3069 34.9915C44.319 35.0574 44.3312 35.1234 44.3437 35.1914C44.0526 35.2291 44.0526 35.2291 43.7558 35.2676C43.7003 35.1922 43.6449 35.1168 43.5878 35.0391C43.3761 35.0241 43.1843 35.0212 42.9737 35.0295C42.6025 35.0394 42.2693 35.0453 41.9081 34.9629C41.9497 34.7367 41.9497 34.7367 41.9921 34.5059C42.0944 34.503 42.1967 34.5002 42.3021 34.4972C42.4385 34.4922 42.5748 34.4872 42.7112 34.4821C42.7784 34.4803 42.8456 34.4786 42.9148 34.4768C43.3638 34.4586 43.6892 34.3839 44.0917 34.2012C44.0625 34.0507 44.0625 34.0507 44.0077 33.8965C43.7776 33.7921 43.5898 33.8093 43.3326 33.8069C43.23 33.8051 43.1275 33.8033 43.0219 33.8014C42.8062 33.7982 42.5906 33.7958 42.3749 33.7943C41.765 33.7818 41.3312 33.7467 40.8163 33.4395C40.6911 33.2123 40.6895 33.0826 40.7323 32.8301C41.0259 32.5038 41.3735 32.3204 41.8241 32.2207C41.8241 32.095 41.8241 31.9693 41.8241 31.8398Z" fill="#212F42"/>
<path d="M33.8457 22.3945C34.012 22.3945 34.1783 22.3945 34.3496 22.3945C34.3667 22.4421 34.3838 22.4896 34.4014 22.5385C34.5694 22.7709 34.738 22.7758 35.032 22.8325C35.124 22.851 35.216 22.8694 35.3108 22.8885C35.3816 22.9014 35.4524 22.9144 35.5254 22.9277C35.4977 23.0534 35.47 23.1791 35.4414 23.3086C35.0425 23.3943 35.0425 23.3943 34.8535 23.3086C34.6426 23.3011 34.4345 23.298 34.2236 23.2991C34.1657 23.2988 34.1078 23.2985 34.0481 23.2982C33.7263 23.2941 33.7263 23.2941 33.4258 23.3848C33.4535 23.4853 33.4812 23.5859 33.5098 23.6895C33.599 23.7079 33.6882 23.7264 33.7801 23.7454C35.2403 24.0559 35.2403 24.0559 35.6986 24.4464C35.7773 24.6035 35.7773 24.6035 35.7878 24.7844C35.6256 25.1277 35.3164 25.3633 34.9359 25.5042C34.7982 25.5401 34.6579 25.5678 34.5176 25.5938C34.4899 25.7194 34.4621 25.8451 34.4336 25.9746C34.2396 25.9746 34.0456 25.9746 33.8457 25.9746C33.8312 25.9287 33.8167 25.8827 33.8017 25.8354C33.6143 25.5853 33.3433 25.5419 33.0374 25.4604C32.9484 25.4353 32.9484 25.4353 32.8576 25.4096C32.7114 25.3684 32.5647 25.3286 32.418 25.2891C32.502 25.1367 32.5859 24.9844 32.6699 24.832C32.902 24.8718 33.1172 24.9165 33.3418 24.9844C33.5667 24.9917 33.7889 24.995 34.0137 24.9939C34.1049 24.9943 34.1049 24.9943 34.198 24.9948C34.4666 24.9943 34.681 24.9858 34.9375 24.9082C34.9375 24.8077 34.9375 24.7071 34.9375 24.6035C34.8046 24.5701 34.6716 24.5368 34.5386 24.5035C34.4548 24.4825 34.371 24.4615 34.2847 24.4399C34.1048 24.3968 33.9241 24.3567 33.7427 24.3197C32.8567 24.1382 32.8567 24.1382 32.5859 23.8418C32.4915 23.618 32.4915 23.618 32.502 23.3848C32.7561 23.0844 33.0396 22.914 33.4258 22.7754C33.6672 22.7611 33.6672 22.7611 33.8457 22.7754C33.8457 22.6497 33.8457 22.524 33.8457 22.3945Z" fill="#263245"/>
<path d="M50.7267 22.6992C50.8946 22.696 51.0626 22.6961 51.2306 22.6992C51.2583 22.7244 51.286 22.7495 51.3146 22.7754C51.5937 22.8164 51.8737 22.849 52.1541 22.8822C52.4064 22.9277 52.4064 22.9277 52.5743 23.0801C52.5743 23.1555 52.5743 23.2309 52.5743 23.3086C52.4285 23.3129 52.4285 23.3129 52.2797 23.3172C52.1505 23.3222 52.0212 23.3273 51.892 23.3324C51.7961 23.335 51.7961 23.335 51.6984 23.3376C51.2886 23.3552 51.0031 23.4185 50.6427 23.6133C50.6704 23.7138 50.6981 23.8144 50.7267 23.918C50.7944 23.9164 50.8621 23.9148 50.9319 23.9131C51.2414 23.9068 51.5509 23.9028 51.8605 23.8989C52.0203 23.8951 52.0203 23.8951 52.1833 23.8912C52.8658 23.8847 53.3617 23.9096 53.8907 24.3359C54.0021 24.4512 54.0021 24.4512 54.0441 24.6321C53.9841 24.9175 53.8207 25.0267 53.5821 25.2129C53.3302 25.3652 53.3302 25.3652 53.0782 25.3652C53.1198 25.5915 53.1198 25.5915 53.1622 25.8223C52.9128 25.86 52.9128 25.86 52.6583 25.8984C52.6167 25.7476 52.6167 25.7476 52.5743 25.5938C52.4742 25.5955 52.374 25.5973 52.2709 25.5991C52.1393 25.6005 52.0078 25.6019 51.8762 25.6033C51.8102 25.6045 51.7442 25.6058 51.6763 25.6071C51.5809 25.6079 51.5809 25.6079 51.4835 25.6086C51.3958 25.6098 51.3958 25.6098 51.3063 25.611C51.1466 25.5938 51.1466 25.5938 50.8946 25.4414C50.8946 25.366 50.8946 25.2906 50.8946 25.2129C50.9969 25.2045 51.0993 25.1962 51.2047 25.1876C51.341 25.1754 51.4774 25.1632 51.6138 25.151C51.6809 25.1457 51.7481 25.1403 51.8173 25.1348C52.2551 25.0943 52.6068 25.0261 52.9943 24.832C53.0951 24.6772 53.0951 24.6772 53.1622 24.5273C53.0809 24.5266 52.9996 24.5259 52.9158 24.5252C52.6124 24.5221 52.3091 24.5171 52.0058 24.5115C51.8748 24.5094 51.7438 24.5078 51.6129 24.5067C51.4239 24.5051 51.2351 24.5015 51.0462 24.4976C50.9592 24.4974 50.9592 24.4974 50.8704 24.4973C50.4236 24.4852 50.1198 24.3577 49.8028 24.0703C49.7611 23.7419 49.7581 23.5908 49.9813 23.3229C50.2281 23.1525 50.4279 23.0732 50.7267 23.0039C50.7267 22.9034 50.7267 22.8028 50.7267 22.6992Z" fill="#283345"/>
<path d="M42.2441 15.9961C42.4381 15.9961 42.6321 15.9961 42.832 15.9961C42.832 16.0966 42.832 16.1972 42.832 16.3008C43.414 16.3385 43.414 16.3385 44.0078 16.377C44.0078 16.5278 44.0078 16.6786 44.0078 16.834C43.85 16.8313 43.85 16.8313 43.6889 16.8286C43.5503 16.8272 43.4116 16.8258 43.2729 16.8245C43.2037 16.8232 43.1344 16.8219 43.063 16.8206C42.9959 16.8201 42.9287 16.8196 42.8596 16.8191C42.7672 16.8179 42.7672 16.8179 42.673 16.8167C42.4653 16.837 42.3347 16.8825 42.1602 16.9863C42.1324 17.0617 42.1047 17.1371 42.0762 17.2148C42.4724 17.2978 42.8674 17.3647 43.272 17.4032C43.3344 17.4091 43.3968 17.4151 43.4611 17.4212C43.5854 17.4326 43.7098 17.4432 43.8342 17.453C44.2196 17.4883 44.512 17.5589 44.8477 17.748C45.0451 18.0166 45.0714 18.1175 45.0156 18.4336C44.6994 18.7409 44.4803 18.86 44.0078 18.8906C44.0355 18.9362 44.0632 18.9817 44.0918 19.0287C44.1758 19.1953 44.1758 19.1953 44.1758 19.4238C43.9263 19.4238 43.6769 19.4238 43.4199 19.4238C43.4199 19.2981 43.4199 19.1725 43.4199 19.043C43.3339 19.0392 43.2478 19.0355 43.1591 19.0317C43.0448 19.0259 42.9306 19.0202 42.8163 19.0144C42.7314 19.0109 42.7314 19.0109 42.6449 19.0073C42.3116 18.9896 42.042 18.9452 41.7402 18.8145C41.7402 18.6888 41.7402 18.5631 41.7402 18.4336C41.8442 18.4462 41.9481 18.4587 42.0552 18.4717C42.7355 18.5398 43.4174 18.5448 44.0918 18.4336C44.0918 18.3079 44.0918 18.1822 44.0918 18.0527C44.0131 18.0447 44.0131 18.0447 43.9328 18.0366C43.6917 18.0114 43.4509 17.9845 43.21 17.9575C43.0862 17.945 43.0862 17.945 42.96 17.9322C42.3486 17.862 41.7278 17.7475 41.3203 17.291C41.3203 16.9687 41.3462 16.8134 41.5933 16.5769C41.8194 16.4557 41.985 16.4038 42.2441 16.377C42.2441 16.2513 42.2441 16.1256 42.2441 15.9961Z" fill="#273447"/>
<path d="M48.8789 35.1152C48.947 35.141 49.0151 35.1667 49.0853 35.1932C50.2227 35.6087 51.2782 35.6813 52.4903 35.7246C52.3084 35.9032 52.1287 36.0213 51.8948 36.1394C51.796 36.1893 51.796 36.1893 51.6952 36.2403C51.6267 36.2743 51.5583 36.3084 51.4877 36.3435C51.4196 36.3782 51.3514 36.4128 51.2812 36.4485C50.7016 36.7392 50.4072 36.8211 49.7555 36.653C49.6708 36.6326 49.6708 36.6326 49.5844 36.6117C49.3134 36.5441 49.1149 36.4767 48.8789 36.334C48.8604 36.1216 48.8553 35.9267 48.8632 35.7151C48.8643 35.6576 48.8655 35.6002 48.8666 35.541C48.8696 35.3991 48.8741 35.2571 48.8789 35.1152Z" fill="#F4F4F2"/>
<path d="M36.9531 35.1914C36.9531 35.5936 36.9531 35.9958 36.9531 36.4102C36.6062 36.5675 36.324 36.6125 35.9453 36.6387C35.8878 36.6435 35.8304 36.6482 35.7712 36.6532C35.2383 36.6773 34.8902 36.5435 34.4336 36.3054C34.3696 36.274 34.3056 36.2426 34.2397 36.2102C33.7751 35.9773 33.7751 35.9773 33.6777 35.8008C33.7531 35.7988 33.8284 35.7969 33.9061 35.7948C34.5063 35.7701 35.0729 35.7144 35.6566 35.5818C35.7115 35.5695 35.7664 35.5572 35.8229 35.5445C36.1941 35.4553 36.5805 35.1914 36.9531 35.1914Z" fill="#F2F2F0"/>
<path d="M28.3027 31.3066C28.3027 31.8848 28.3027 32.4629 28.3027 33.0586C27.8301 32.9729 27.8301 32.9729 27.5905 32.8304C27.5396 32.8004 27.4886 32.7704 27.4362 32.7395C27.3844 32.7081 27.3325 32.6767 27.2792 32.6444C27.2264 32.6133 27.1736 32.5823 27.1192 32.5502C26.9092 32.4254 26.7171 32.306 26.5391 32.1445C26.7735 32.0191 27.0079 31.8937 27.2424 31.7684C27.3091 31.7327 27.3758 31.697 27.4445 31.6603C27.5084 31.6262 27.5723 31.592 27.6381 31.5569C27.697 31.5254 27.7559 31.4939 27.8167 31.4614C28.1123 31.3066 28.1123 31.3066 28.3027 31.3066Z" fill="#F0F1EF"/>
<path d="M57.6973 31.3828C58.2585 31.6599 58.8189 31.9383 59.377 32.2207C59.0841 32.4323 58.7671 32.6004 58.4426 32.7682C58.3629 32.8102 58.3629 32.8102 58.2815 32.8531C57.8856 33.0586 57.8856 33.0586 57.6973 33.0586C57.6973 32.5056 57.6973 31.9526 57.6973 31.3828Z" fill="#F1F2EF"/>
<path d="M50.7266 22.6992C50.8945 22.696 51.0625 22.6961 51.2305 22.6992C51.2582 22.7244 51.2859 22.7495 51.3145 22.7754C51.5936 22.8164 51.8736 22.849 52.154 22.8822C52.4062 22.9277 52.4062 22.9277 52.5742 23.0801C52.5742 23.1555 52.5742 23.2309 52.5742 23.3086C51.7012 23.3463 51.7012 23.3463 50.8105 23.3848C50.8383 23.2339 50.866 23.0831 50.8945 22.9277C50.8391 22.9277 50.7837 22.9277 50.7266 22.9277C50.7266 22.8523 50.7266 22.7769 50.7266 22.6992Z" fill="#202E41"/>
<path d="M44.0918 19.043C44.1195 19.1687 44.1472 19.2944 44.1758 19.4239C43.9541 19.4239 43.7323 19.4239 43.5039 19.4239C43.5039 19.2982 43.5039 19.1725 43.5039 19.043C43.7279 18.9414 43.8539 18.9919 44.0918 19.043Z" fill="#1C2735"/>
<path d="M41.9922 34.5059C42.5188 34.5059 43.0454 34.5059 43.5879 34.5059C43.2776 34.6934 43.1148 34.6757 42.748 34.6582C42.5433 34.6201 42.5433 34.6201 42.4121 34.582C42.3844 34.6826 42.3567 34.7831 42.3281 34.8867C42.2173 34.8616 42.1064 34.8364 41.9922 34.8105C41.9922 34.71 41.9922 34.6095 41.9922 34.5059Z" fill="#182538"/>
<path d="M41.7402 18.4336C41.8802 18.4303 42.0202 18.4305 42.1602 18.4336C42.2441 18.5098 42.2441 18.5098 42.2494 18.705C42.2477 18.7662 42.2459 18.8275 42.2441 18.8906C42.3273 18.9158 42.4104 18.9409 42.4961 18.9668C41.9292 18.9001 41.9292 18.9001 41.7402 18.8145C41.7402 18.6888 41.7402 18.5631 41.7402 18.4336Z" fill="#394355"/>
<path d="M29.7305 21.709C29.7859 21.7341 29.8413 21.7593 29.8984 21.7852C29.5936 22.0617 29.2887 22.3382 28.9746 22.623C28.9192 22.5979 28.8637 22.5728 28.8066 22.5469C29.0743 22.2167 29.3831 21.9665 29.7305 21.709Z" fill="#3E4755"/>
<path d="M60.2168 46.084C60.2722 46.1091 60.3277 46.1343 60.3848 46.1602C60.1353 46.3487 60.1353 46.3487 59.8809 46.541C59.7977 46.4907 59.7146 46.4405 59.6289 46.3887C60.0718 46.1432 60.0718 46.1432 60.2168 46.084Z" fill="#374351"/>
<path d="M67.6074 58.8809C67.6629 58.906 67.7183 58.9311 67.7754 58.957C67.6813 59.0209 67.5867 59.0843 67.4919 59.1475C67.4393 59.1828 67.3867 59.2182 67.3325 59.2546C67.1875 59.3379 67.1875 59.3379 67.0195 59.3379C67.1035 59.1094 67.1035 59.1094 67.3502 58.9761C67.4351 58.9447 67.52 58.9132 67.6074 58.8809Z" fill="#424D5C"/>
</svg>
